<svg enable-background="new 0 0 472 392" version="1.1" viewBox="0 0 472 392" xml:space="preserve" xmlns="http://www.w3.org/2000/svg">
	<path d="m289 188c-33-20-74-17-109-4-10 1-13 7-10 16 4 36 9 73 10 110-6 11 9 15 18 17 10 4 22 3 33 5 8 2 17-0.3 26-1 8-2 18-4 21-13 2-2 0.8-7 2-10 3-40 6-80 8-120z" fill="#ffb564"/>
	<path d="m173 146c2 13 5 25 7 38 9-2 17-5 26-7-2-11-4-22-6-33-9 0.8-18 2-27 2z" fill="#52e2d7"/>
	<path d="m223 134c-12-7-10 13-9 20 0.9 11 2 25 17 22 9 3 4-4 3-8-4-12-7-23-11-35z" fill="#fffbe8"/>
	<path d="m189 181c-12-1-25 7-20 20 3 38 10 76 13 114 3 8 12 10 19 12" fill="#f9a035"/>
	<path d="m200 93c3 16 6 33 11 48 5-3 14-7 9-14-4-11-8-23-11-34h-9z" fill="#ffb564"/>
	<path d="m184 124c-2 6-13 20-9 22 6-3 25 1 24-4-5-6-10-12-15-18z" fill="#fffbe8"/>
	<path d="m258 93c-6 9-15 12-16 24-4 20-0.2 40-8 59 8 0.6 17 0.2 26 2 5 1 24 4 10-1-9-2-0.9-17-5-25 1-16 4-31 3-47-4-4-3-14-10-13z" fill="#f25f68"/>
<g fill="none" stroke="#af3a46" stroke-linecap="square" stroke-linejoin="round" stroke-miterlimit="10" stroke-width="5">
		<path d="m238 171 7-62c5-7 10-15 15-22 2 8 6 17 7 25-0.8 21-2 42-3 63"/>
		<path d="m180 182c-2-13-4-26-6-38 3-7 7-14 10-20 5 5 11 10 16 16 2 12 4 24 6 36"/>
		<path d="m218 175c-7-26-13-53-18-80 7-12 14 9 15 16 7 21 13 43 19 64"/>
	</g><g stroke="#af3a46" stroke-miterlimit="10"><path d="m200 93c-8-7-13-19-4-27 1-6-8-17 4-11 12 5 16 21 11 33l-0.5 1-0.5 1" fill="#af3a46" stroke-width="2"/>
		<path d="m245 109c7-3 16-2 22 2" fill="none" stroke-linecap="round" stroke-linejoin="round" stroke-width="5"/>
		<path d="m200 139c-5 5-19 9-26 5" fill="#fffbe8" stroke-linecap="round" stroke-linejoin="round" stroke-width="5"/>
	</g><path d="m191 130c-0.9 4-17 6-9-2 1-6 4-4 7-0.4 0.8 0.8 2 2 2 2z" fill="#af3a46"/><g fill="none" stroke="#af3a46" stroke-linecap="round" stroke-linejoin="round" stroke-miterlimit="10">
		<path d="m212 142c4 0.05 9-2 11-6" stroke-width="5"/>
		<path d="m169 189c34-16 76-20 112-5 7 1 9 6 7 12-4 42-7 84-11 126-30 15-66 12-95-1-4-44-9-88-13-132z" stroke-width="5"/>
		<path d="m256 270c-0.7-11-1-22-2-33-8-6-16-13-24-19-8 6-16 12-24 18 1 11-0.2 25 3 35 16 2 32 3 48-1z" stroke-width="5"/>
		<path d="m230 219v27" stroke-width="5"/>
		<path d="m233 241c-8-4-11 8-2 6 3 1 1-5 2-6z" stroke-width="4"/>
</g>
</svg>
